<svg width="34" height="34" viewBox="0 0 34 34" fill="none" xmlns="http://www.w3.org/2000/svg">
<g id="linkedin">
<path id="bg" d="M28.6875 0H5.3125C2.37849 0 0 2.37849 0 5.3125V28.6875C0 31.6215 2.37849 34 5.3125 34H28.6875C31.6215 34 34 31.6215 34 28.6875V5.3125C34 2.37849 31.6215 0 28.6875 0Z" fill="black"/>
<path id="linkedin_2" d="M10.9802 27.4793H6.32844V12.8401H10.9802V27.4793ZM8.6543 10.7878C7.14933 10.7878 6.05481 9.69332 6.05481 8.18835C6.05481 6.68339 7.28615 5.58887 8.6543 5.58887C10.1593 5.58887 11.2538 6.68339 11.2538 8.18835C11.2538 9.69332 10.1593 10.7878 8.6543 10.7878ZM27.9452 27.4793H23.2935V19.544C23.2935 17.2181 22.3358 16.5341 20.9676 16.5341C19.5995 16.5341 18.2313 17.6286 18.2313 19.6808V27.4793H13.5796V12.8401H17.9577V14.8923C18.3682 13.9346 20.0099 12.4296 22.3358 12.4296C24.9353 12.4296 27.6716 13.9346 27.6716 18.4495V27.4793H27.9452Z" fill="white"/>
</g>
</svg>
