<svg width="48" height="34" viewBox="0 0 48 34" fill="none" xmlns="http://www.w3.org/2000/svg">
<path d="M41.7391 0H6.26088C4.69265 0 3.18864 0.622975 2.07973 1.73189C0.970814 2.8408 0.347839 4.34481 0.347839 5.91304V28.087C0.347839 29.6552 0.970814 31.1592 2.07973 32.2681C3.18864 33.377 4.69265 34 6.26088 34H41.7391C43.3074 34 44.8114 33.377 45.9203 32.2681C47.0292 31.1592 47.6522 29.6552 47.6522 28.087V5.91304C47.6522 4.34481 47.0292 2.8408 45.9203 1.73189C44.8114 0.622975 43.3074 0 41.7391 0ZM44.6957 28.087C44.6957 28.8711 44.3842 29.6231 43.8297 30.1775C43.2753 30.732 42.5233 31.0435 41.7391 31.0435H6.26088C5.47676 31.0435 4.72476 30.732 4.1703 30.1775C3.61585 29.6231 3.30436 28.8711 3.30436 28.087V5.91304C3.30436 5.12893 3.61585 4.37692 4.1703 3.82246C4.72476 3.26801 5.47676 2.95652 6.26088 2.95652H41.7391C42.5233 2.95652 43.2753 3.26801 43.8297 3.82246C44.3842 4.37692 44.6957 5.12893 44.6957 5.91304V28.087Z" fill="black"/>
<path d="M41.3992 7.93754C41.2761 7.78677 41.1245 7.66179 40.953 7.56975C40.7816 7.47771 40.5936 7.42044 40.3999 7.40121C40.2063 7.38198 40.0107 7.40117 39.8245 7.45769C39.6383 7.51421 39.4651 7.60695 39.3148 7.73058L24 20.2662L8.67045 7.73058C8.523 7.59269 8.34886 7.48646 8.15878 7.41844C7.96871 7.35043 7.76671 7.32208 7.56525 7.33512C7.3638 7.34816 7.16715 7.40233 6.98743 7.49428C6.8077 7.58623 6.64872 7.71403 6.52028 7.86978C6.39184 8.02552 6.29667 8.20593 6.24063 8.39988C6.18458 8.59382 6.16883 8.79719 6.19438 8.99744C6.21994 9.1977 6.28624 9.39059 6.3892 9.56424C6.49217 9.73789 6.62961 9.88859 6.79306 10.0071L23.0539 23.3114C23.3199 23.5318 23.6546 23.6521 24 23.6515C24.3403 23.6487 24.6693 23.5286 24.9313 23.3114L41.1922 10.0071C41.4923 9.75894 41.6825 9.40239 41.7212 9.01488C41.76 8.62736 41.6442 8.2402 41.3992 7.93754Z" fill="black"/>
<path d="M35.3826 19.6467C35.1056 19.3713 34.7309 19.2168 34.3404 19.2168C33.9499 19.2168 33.5752 19.3713 33.2982 19.6467C33.1597 19.7841 33.0497 19.9476 32.9746 20.1277C32.8996 20.3079 32.861 20.5011 32.861 20.6962C32.861 20.8914 32.8996 21.0846 32.9746 21.2647C33.0497 21.4449 33.1597 21.6084 33.2982 21.7458L39.2113 27.6588C39.3491 27.7957 39.5125 27.9041 39.6923 27.9778C39.872 28.0514 40.0644 28.089 40.2587 28.0883C40.4529 28.0877 40.6451 28.0487 40.8243 27.9738C41.0035 27.8988 41.1662 27.7893 41.303 27.6515C41.4399 27.5136 41.5482 27.3502 41.6219 27.1705C41.6956 26.9907 41.7332 26.7983 41.7325 26.604C41.7318 26.4098 41.6929 26.2176 41.6179 26.0384C41.543 25.8592 41.4334 25.6966 41.2956 25.5597L35.3826 19.6467Z" fill="black"/>
<path d="M12.6617 19.6467L6.7487 25.5597C6.47033 25.8361 6.31316 26.2118 6.31178 26.604C6.31039 26.9963 6.4649 27.3731 6.7413 27.6515C7.0177 27.9298 7.39336 28.087 7.78564 28.0883C8.17792 28.0897 8.55469 27.9352 8.83305 27.6588L14.7461 21.7458C14.8846 21.6084 14.9946 21.4449 15.0697 21.2647C15.1447 21.0846 15.1834 20.8914 15.1834 20.6962C15.1834 20.5011 15.1447 20.3079 15.0697 20.1277C14.9946 19.9476 14.8846 19.7841 14.7461 19.6467C14.4691 19.3713 14.0945 19.2168 13.7039 19.2168C13.3134 19.2168 12.9387 19.3713 12.6617 19.6467Z" fill="black"/>
</svg>
